<svg width="17" height="16" viewBox="0 0 17 16" fill="none" xmlns="http://www.w3.org/2000/svg">
<path fill-rule="evenodd" clip-rule="evenodd" d="M9.57772 4.32994L8.50009 3.5L7.42247 4.32994L6.06721 4.21436L5.60935 5.49516L4.40675 6.13063L4.71403 7.45565L4.0459 8.64042L5.02075 9.58896L5.09922 10.9469L6.43214 11.2178L7.2323 12.3177L8.50009 11.825L9.76789 12.3177L10.568 11.2178L11.901 10.9469L11.9794 9.58896L12.9543 8.64042L12.2862 7.45565L12.5934 6.13063L11.3908 5.49516L10.933 4.21436L9.57772 4.32994ZM7.35365 7.64645C7.15839 7.45118 6.8418 7.45118 6.64654 7.64645C6.45128 7.84171 6.45128 8.15829 6.64654 8.35355L7.64654 9.35355C7.8418 9.54882 8.15839 9.54882 8.35365 9.35355L10.3536 7.35355C10.5489 7.15829 10.5489 6.84171 10.3536 6.64645C10.1584 6.45118 9.8418 6.45118 9.64654 6.64645L8.00009 8.29289L7.35365 7.64645Z" fill="#0098FD"/>
</svg>
