<svg width="25" height="24" viewBox="0 0 25 24" fill="none" xmlns="http://www.w3.org/2000/svg">
<path d="M3.5625 3.75C3.5625 3.47386 3.78636 3.25 4.0625 3.25H7.5625C7.83864 3.25 8.0625 3.47386 8.0625 3.75V7.25C8.0625 7.52614 7.83864 7.75 7.5625 7.75H4.0625C3.78636 7.75 3.5625 7.52614 3.5625 7.25V3.75Z" fill="#0C1014"/>
<path d="M3.5625 10.25C3.5625 9.97386 3.78636 9.75 4.0625 9.75H7.5625C7.83864 9.75 8.0625 9.97386 8.0625 10.25V13.75C8.0625 14.0261 7.83864 14.25 7.5625 14.25H4.0625C3.78636 14.25 3.5625 14.0261 3.5625 13.75V10.25Z" fill="#0C1014"/>
<path d="M4.0625 16.25C3.78636 16.25 3.5625 16.4739 3.5625 16.75V20.25C3.5625 20.5261 3.78636 20.75 4.0625 20.75H7.5625C7.83864 20.75 8.0625 20.5261 8.0625 20.25V16.75C8.0625 16.4739 7.83864 16.25 7.5625 16.25H4.0625Z" fill="#0C1014"/>
<path d="M10.0625 3.75C10.0625 3.47386 10.2864 3.25 10.5625 3.25H14.0625C14.3386 3.25 14.5625 3.47386 14.5625 3.75V7.25C14.5625 7.52614 14.3386 7.75 14.0625 7.75H10.5625C10.2864 7.75 10.0625 7.52614 10.0625 7.25V3.75Z" fill="#0C1014"/>
<path d="M10.5625 9.75C10.2864 9.75 10.0625 9.97386 10.0625 10.25V13.75C10.0625 14.0261 10.2864 14.25 10.5625 14.25H14.0625C14.3386 14.25 14.5625 14.0261 14.5625 13.75V10.25C14.5625 9.97386 14.3386 9.75 14.0625 9.75H10.5625Z" fill="#0C1014"/>
<path d="M10.0625 16.75C10.0625 16.4739 10.2864 16.25 10.5625 16.25H14.0625C14.3386 16.25 14.5625 16.4739 14.5625 16.75V20.25C14.5625 20.5261 14.3386 20.75 14.0625 20.75H10.5625C10.2864 20.75 10.0625 20.5261 10.0625 20.25V16.75Z" fill="#0C1014"/>
<path d="M17.0625 3.25C16.7864 3.25 16.5625 3.47386 16.5625 3.75V7.25C16.5625 7.52614 16.7864 7.75 17.0625 7.75H20.5625C20.8386 7.75 21.0625 7.52614 21.0625 7.25V3.75C21.0625 3.47386 20.8386 3.25 20.5625 3.25H17.0625Z" fill="#0C1014"/>
<path d="M16.5625 10.25C16.5625 9.97386 16.7864 9.75 17.0625 9.75H20.5625C20.8386 9.75 21.0625 9.97386 21.0625 10.25V13.75C21.0625 14.0261 20.8386 14.25 20.5625 14.25H17.0625C16.7864 14.25 16.5625 14.0261 16.5625 13.75V10.25Z" fill="#0C1014"/>
<path d="M17.0625 16.25C16.7864 16.25 16.5625 16.4739 16.5625 16.75V20.25C16.5625 20.5261 16.7864 20.75 17.0625 20.75H20.5625C20.8386 20.75 21.0625 20.5261 21.0625 20.25V16.75C21.0625 16.4739 20.8386 16.25 20.5625 16.25H17.0625Z" fill="#0C1014"/>
</svg>
