<svg width="25" height="24" viewBox="0 0 25 24" fill="none" xmlns="http://www.w3.org/2000/svg">
<path fill-rule="evenodd" clip-rule="evenodd" d="M8.125 10.9999C8.125 8.79078 9.91586 6.99992 12.125 6.99992C14.3341 6.99992 16.125 8.79078 16.125 10.9999C16.125 13.2091 14.3341 14.9999 12.125 14.9999C9.91586 14.9999 8.125 13.2091 8.125 10.9999ZM12.125 8.99992C11.0204 8.99992 10.125 9.89535 10.125 10.9999C10.125 12.1045 11.0204 12.9999 12.125 12.9999C13.2296 12.9999 14.125 12.1045 14.125 10.9999C14.125 9.89535 13.2296 8.99992 12.125 8.99992Z" fill="#6F7680"/>
<path fill-rule="evenodd" clip-rule="evenodd" d="M11.6727 2.27685C11.967 2.18376 12.283 2.18376 12.5773 2.27685C12.8144 2.35185 12.9862 2.47907 13.0993 2.57483C13.1968 2.65739 13.299 2.75968 13.3846 2.84535L14.5392 3.99992L17.9442 3.99992C18.4802 3.9999 18.9426 3.99989 19.3233 4.0315C19.7252 4.06488 20.1247 4.13859 20.5079 4.33768C21.0559 4.62231 21.5026 5.06907 21.7872 5.617C21.9863 6.00027 22.06 6.39974 22.0934 6.80163C22.125 7.18228 22.125 7.64467 22.125 8.18068V17.8191C22.125 18.3551 22.125 18.8176 22.0934 19.1982C22.06 19.6001 21.9863 19.9996 21.7872 20.3828C21.5026 20.9308 21.0559 21.3775 20.5079 21.6622C20.1247 21.8613 19.7252 21.935 19.3233 21.9683C18.9426 22 18.4803 21.9999 17.9443 21.9999H6.30583C5.76982 21.9999 5.30736 22 4.9267 21.9683C4.52482 21.935 4.12535 21.8613 3.74208 21.6622C3.19415 21.3775 2.74739 20.9308 2.46276 20.3828C2.26367 19.9996 2.18995 19.6001 2.15658 19.1982C2.12497 18.8176 2.12498 18.3552 2.125 17.8191V8.18072C2.12498 7.6447 2.12497 7.18229 2.15658 6.80163C2.18995 6.39974 2.26367 6.00027 2.46276 5.617C2.74739 5.06907 3.19415 4.62231 3.74208 4.33768C4.12535 4.13859 4.52482 4.06488 4.9267 4.0315C5.30737 3.99989 5.76978 3.9999 6.3058 3.99992L9.71079 3.99992L10.8653 2.84539C10.9509 2.75971 11.0532 2.6574 11.1507 2.57483C11.2638 2.47907 11.4356 2.35185 11.6727 2.27685ZM12.125 4.41414L10.5392 5.99992H6.345C5.75873 5.99992 5.38017 6.00073 5.09222 6.02464C4.81625 6.04756 4.71424 6.08643 4.66403 6.11251C4.48138 6.20739 4.33246 6.35631 4.23759 6.53895C4.21151 6.58916 4.17264 6.69117 4.14972 6.96715C4.12581 7.25509 4.125 7.63365 4.125 8.21992V17.7799C4.125 18.3662 4.12581 18.7448 4.14972 19.0327C4.17264 19.3087 4.21151 19.4107 4.23759 19.4609C4.33246 19.6435 4.48138 19.7925 4.66403 19.8873C4.71424 19.9134 4.81625 19.9523 5.09222 19.9752C5.13205 19.9785 5.17361 19.9814 5.21721 19.9839C5.66133 17.7132 7.65686 16 10.0514 16H14.1986C16.5931 16 18.5887 17.7132 19.0328 19.9839C19.0764 19.9814 19.118 19.9785 19.1578 19.9752C19.4338 19.9523 19.5358 19.9134 19.586 19.8873C19.7686 19.7925 19.9175 19.6435 20.0124 19.4609C20.0385 19.4107 20.0774 19.3087 20.1003 19.0327C20.1242 18.7448 20.125 18.3662 20.125 17.7799V8.21992C20.125 7.63365 20.1242 7.25509 20.1003 6.96715C20.0774 6.69117 20.0385 6.58916 20.0124 6.53895C19.9175 6.35631 19.7686 6.20739 19.586 6.11251C19.5358 6.08643 19.4338 6.04756 19.1578 6.02464C18.8698 6.00073 18.4913 5.99992 17.905 5.99992H13.7108L12.125 4.41414ZM17.0027 19.9999C16.6107 18.8238 15.5034 17.976 14.1986 17.976H10.0514C8.74664 17.976 7.63933 18.8238 7.24734 19.9999H17.0027Z" fill="#6F7680"/>
</svg>
