<svg width="32" height="32" viewBox="0 0 32 32" fill="none" xmlns="http://www.w3.org/2000/svg">
<path fill-rule="evenodd" clip-rule="evenodd" d="M16 6.33301C10.6613 6.33301 6.33337 10.6609 6.33337 15.9997C6.33337 21.3384 10.6613 25.6663 16 25.6663C17.8136 25.6663 19.5076 25.1679 20.9561 24.3011C21.1883 24.1621 21.467 24.1232 21.7284 24.1933L25.1036 25.0977L24.1985 21.7198C24.1286 21.4587 24.1673 21.1804 24.3059 20.9483C25.17 19.5015 25.6667 17.8101 25.6667 15.9997C25.6667 10.6609 21.3388 6.33301 16 6.33301ZM4.33337 15.9997C4.33337 9.55635 9.55672 4.33301 16 4.33301C22.4434 4.33301 27.6667 9.55635 27.6667 15.9997C27.6667 18.0274 27.1486 19.9368 26.237 21.5999L27.4838 26.2531C27.5762 26.5982 27.4776 26.9664 27.225 27.219C26.9723 27.4716 26.6041 27.5703 26.259 27.4778L21.609 26.2318C19.9439 27.1464 18.0313 27.6663 16 27.6663C9.55672 27.6663 4.33337 22.443 4.33337 15.9997Z" fill="white"/>
</svg>
